<?xml version="1.0" encoding="utf-8"?>
<!-- Generator: Adobe Illustrator 19.0.0, SVG Export Plug-In . SVG Version: 6.00 Build 0)  -->
<svg version="1.1" id="Layer_1" xmlns="http://www.w3.org/2000/svg" xmlns:xlink="http://www.w3.org/1999/xlink" x="0px" y="0px"
	 viewBox="0 0 256 256" style="enable-background:new 0 0 256 256;" xml:space="preserve">
<path d="M222.7,87.4c0,33.6,0,67.1,0,100.7c-1.6,4.9-5.3,6.2-10.2,6.2c-53.7-0.1-107.5-0.1-161.2,0c-4.9,0-10.2-2.6-10.2-9.8
	s0-114.6,0-119.1s3.5-6.9,8.1-6.9c13.8,0,28.2,0,42.1,0c3.3,0,5.9,1.1,8,3.7c4.4,5.3,9,10.3,13.3,15.6c2,2.5,4.2,3.5,7.5,3.5
	c30.8-0.1,61.6,0,92.4-0.1C217.4,81.2,221.1,82.5,222.7,87.4z"/>
</svg>
